<svg width="206" height="205" viewBox="0 0 206 205" fill="none" xmlns="http://www.w3.org/2000/svg">
<path d="M103.281 204.54H102.832C46.5951 204.54 0.841919 158.774 0.841919 102.52V102.07C0.841919 45.8173 46.5951 0.0506592 102.832 0.0506592H103.281C159.518 0.0506592 205.271 45.8173 205.271 102.07V102.52C205.271 158.774 159.518 204.54 103.281 204.54ZM102.832 6.97242C50.4079 6.97242 7.76164 49.6312 7.76164 102.07V102.52C7.76164 154.96 50.4079 197.618 102.832 197.618H103.281C155.705 197.618 198.352 154.96 198.352 102.52V102.07C198.352 49.6312 155.705 6.97242 103.281 6.97242H102.832Z" fill="#383D38"/>
<path d="M133.618 43.7063H72.5025C55.6184 43.7063 41.8828 57.446 41.8828 74.3351V130.263C41.8828 147.152 55.6184 160.892 72.5025 160.892H133.618C150.502 160.892 164.237 147.152 164.237 130.263V74.3351C164.237 57.446 150.502 43.7063 133.618 43.7063ZM52.6845 74.3351C52.6845 63.4056 61.5763 54.5111 72.5025 54.5111H133.618C144.544 54.5111 153.436 63.4056 153.436 74.3351V130.263C153.436 141.192 144.544 150.087 133.618 150.087H72.5025C61.5763 150.087 52.6845 141.192 52.6845 130.263V74.3351Z" fill="#383D38"/>
<path d="M103.06 130.782C118.761 130.782 131.542 118.004 131.542 102.292C131.542 86.5796 118.768 73.8021 103.06 73.8021C87.3524 73.8021 74.5786 86.5796 74.5786 102.292C74.5786 118.004 87.3524 130.782 103.06 130.782ZM103.06 84.6138C112.81 84.6138 120.74 92.5462 120.74 102.299C120.74 112.052 112.81 119.984 103.06 119.984C93.3103 119.984 85.3803 112.052 85.3803 102.299C85.3803 92.5462 93.3103 84.6138 103.06 84.6138Z" fill="#383D38"/>
<path d="M134.178 78.405C138.406 78.405 141.852 74.965 141.852 70.7289C141.852 66.4928 138.413 63.0526 134.178 63.0526C129.943 63.0526 126.504 66.4928 126.504 70.7289C126.504 74.965 129.943 78.405 134.178 78.405Z" fill="#383D38"/>
</svg>
