<svg width="205" height="205" viewBox="0 0 205 205" fill="none" xmlns="http://www.w3.org/2000/svg">
<path d="M102.484 204.54H102.035C45.7979 204.54 0.0447998 158.774 0.0447998 102.52V102.07C0.0447998 45.8173 45.7979 0.0506592 102.035 0.0506592H102.484C158.721 0.0506592 204.474 45.8173 204.474 102.07V102.52C204.474 158.774 158.721 204.54 102.484 204.54ZM102.035 6.97242C49.6107 6.97242 6.96452 49.6312 6.96452 102.07V102.52C6.96452 154.96 49.6107 197.618 102.035 197.618H102.484C154.908 197.618 197.554 154.96 197.554 102.52V102.07C197.554 49.6312 154.908 6.97242 102.484 6.97242H102.035Z" fill="#383D38"/>
<path d="M40.9125 98.9211C41.1893 98.7826 41.4662 98.6511 41.7361 98.5265C46.4277 96.353 51.1815 94.318 55.9285 92.283C56.1845 92.283 56.6134 91.9854 56.8556 91.8885C57.2223 91.7292 57.5891 91.577 57.9559 91.4178C58.6617 91.1133 59.3676 90.8156 60.0664 90.511C61.4781 89.9088 62.8827 89.3067 64.2943 88.7045C67.1106 87.5002 69.9269 86.2958 72.7433 85.0845C78.3759 82.6757 84.0156 80.2599 89.6483 77.8511C95.2809 75.4423 100.92 73.0267 106.553 70.6179C112.186 68.2091 117.825 65.7935 123.458 63.3847C129.091 60.9759 134.73 58.5602 140.363 56.1515C141.615 55.6116 142.972 54.8086 144.314 54.5733C145.442 54.3726 146.542 53.985 147.677 53.7704C149.829 53.362 152.202 53.1959 154.265 54.0888C154.977 54.4003 155.635 54.8363 156.181 55.3831C158.797 57.9718 158.43 62.2219 157.877 65.8627C154.022 91.2379 150.168 116.62 146.307 141.995C145.781 145.477 145.061 149.298 142.314 151.499C139.989 153.361 136.682 153.568 133.81 152.779C130.938 151.983 128.406 150.315 125.921 148.675C115.618 141.85 105.308 135.025 95.0041 128.2C92.5545 126.58 89.8282 124.462 89.8559 121.521C89.8697 119.749 90.9284 118.17 92.0078 116.765C100.962 105.081 113.881 97.0522 123.493 85.9081C124.849 84.3369 125.915 81.499 124.053 80.5923C122.946 80.0524 121.673 80.7859 120.662 81.485C107.958 90.3103 95.2602 99.1424 82.5555 107.968C78.4106 110.847 74.0651 113.81 69.069 114.516C64.5989 115.152 60.1011 113.907 55.7762 112.633C52.1503 111.567 48.5312 110.473 44.926 109.345C43.0092 108.75 41.0302 108.106 39.5494 106.756C38.0685 105.407 37.2175 103.136 38.1102 101.337C38.6707 100.209 39.7571 99.4956 40.8988 98.9141L40.9125 98.9211Z" fill="#383D38"/>
</svg>
