<svg width="206" height="205" viewBox="0 0 206 205" fill="none" xmlns="http://www.w3.org/2000/svg">
<path d="M103.123 204.54H102.674C46.4371 204.54 0.683838 158.774 0.683838 102.52V102.07C0.683838 45.8173 46.4371 0.0506592 102.674 0.0506592H103.123C159.36 0.0506592 205.113 45.8173 205.113 102.07V102.52C205.113 158.774 159.36 204.54 103.123 204.54ZM102.674 6.97242C50.2498 6.97242 7.60356 49.6312 7.60356 102.07V102.52C7.60356 154.96 50.2498 197.618 102.674 197.618H103.123C155.547 197.618 198.194 154.96 198.194 102.52V102.07C198.194 49.6312 155.547 6.97242 103.123 6.97242H102.674Z" fill="#383D38"/>
<path d="M150.641 74.9856V93.6398C147.382 93.3214 143.147 92.5807 138.462 90.8641C132.345 88.6215 127.792 85.5552 124.81 83.1811V120.884L124.734 120.766C124.782 121.514 124.81 122.275 124.81 123.043C124.81 141.767 109.58 157.009 90.8547 157.009C72.13 157.009 56.8997 141.767 56.8997 123.043C56.8997 104.32 72.13 89.0715 90.8547 89.0715C92.6885 89.0715 94.4876 89.2168 96.2452 89.5006V107.885C94.5568 107.283 92.7438 106.957 90.8547 106.957C81.9906 106.957 74.7733 114.17 74.7733 123.043C74.7733 131.917 81.9906 139.13 90.8547 139.13C99.7189 139.13 106.936 131.91 106.936 123.043C106.936 122.711 106.929 122.379 106.909 122.047V48.7798H125.543C125.613 50.3579 125.675 51.95 125.744 53.5282C125.869 56.6361 126.976 59.6194 128.906 62.0628C131.169 64.9353 134.511 68.2715 139.203 70.9364C143.597 73.4213 147.721 74.4942 150.641 74.9995V74.9856Z" fill="#383D38"/>
</svg>
