<svg width="48" height="48" viewBox="0 0 48 48" fill="none" xmlns="http://www.w3.org/2000/svg">
<path d="M41.68 9.21999C40.6585 8.198 39.4456 7.38728 38.1107 6.83416C36.7758 6.28103 35.345 5.99634 33.9 5.99634C32.455 5.99634 31.0242 6.28103 29.6893 6.83416C28.3544 7.38728 27.1415 8.198 26.12 9.21999L24 11.34L21.88 9.21999C19.8166 7.15661 17.0181 5.99741 14.1 5.99741C11.1819 5.99741 8.38338 7.15661 6.31999 9.21999C4.25661 11.2834 3.09741 14.0819 3.09741 17C3.09741 19.9181 4.25661 22.7166 6.31999 24.78L24 42.46L41.68 24.78C42.702 23.7585 43.5127 22.5456 44.0658 21.2107C44.6189 19.8758 44.9036 18.445 44.9036 17C44.9036 15.555 44.6189 14.1242 44.0658 12.7893C43.5127 11.4544 42.702 10.2415 41.68 9.21999Z" stroke="#1E1E1E" stroke-width="4" stroke-linecap="round" stroke-linejoin="round"/>
</svg>
